<svg width="2970" height="2126" xmlns="http://www.w3.org/2000/svg" xmlns:xlink="http://www.w3.org/1999/xlink" overflow="hidden"><defs><clipPath id="clip0"><rect x="3717" y="220" width="2970" height="2126"/></clipPath><clipPath id="clip1"><rect x="3719" y="222" width="2963" height="2120"/></clipPath><clipPath id="clip2"><rect x="3968" y="392" width="2667" height="1750"/></clipPath><clipPath id="clip3"><rect x="3719" y="222" width="2963" height="2120"/></clipPath><clipPath id="clip4"><rect x="3719" y="222" width="2963" height="2120"/></clipPath><clipPath id="clip5"><rect x="3719" y="222" width="2963" height="2120"/></clipPath><clipPath id="clip6"><rect x="3719" y="222" width="2963" height="2120"/></clipPath><clipPath id="clip7"><rect x="3719" y="222" width="2963" height="2120"/></clipPath><clipPath id="clip8"><rect x="3719" y="222" width="2963" height="2120"/></clipPath><clipPath id="clip9"><rect x="3719" y="222" width="2963" height="2120"/></clipPath><clipPath id="clip10"><rect x="3719" y="222" width="2963" height="2120"/></clipPath><clipPath id="clip11"><rect x="3719" y="222" width="2963" height="2120"/></clipPath><clipPath id="clip12"><rect x="3719" y="222" width="2963" height="2120"/></clipPath><clipPath id="clip13"><rect x="3719" y="222" width="2963" height="2120"/></clipPath><clipPath id="clip14"><rect x="3719" y="222" width="2963" height="2120"/></clipPath><clipPath id="clip15"><rect x="3719" y="222" width="2963" height="2120"/></clipPath><clipPath id="clip16"><rect x="3719" y="222" width="2963" height="2120"/></clipPath><clipPath id="clip17"><rect x="3719" y="222" width="2963" height="2120"/></clipPath><clipPath id="clip18"><rect x="3719" y="222" width="2963" height="2120"/></clipPath><clipPath id="clip19"><rect x="3719" y="222" width="2963" height="2120"/></clipPath><clipPath id="clip20"><rect x="3719" y="222" width="2963" height="2120"/></clipPath><clipPath id="clip21"><rect x="3719" y="222" width="2963" height="2120"/></clipPath><clipPath id="clip22"><rect x="3719" y="222" width="2963" height="2120"/></clipPath><clipPath id="clip23"><rect x="3719" y="222" width="2963" height="2120"/></clipPath><clipPath id="clip24"><rect x="3719" y="222" width="2963" height="2120"/></clipPath><clipPath id="clip25"><rect x="3719" y="222" width="2963" height="2120"/></clipPath><clipPath id="clip26"><rect x="3719" y="222" width="2963" height="2120"/></clipPath><clipPath id="clip27"><rect x="3719" y="222" width="2963" height="2120"/></clipPath><clipPath id="clip28"><rect x="3719" y="222" width="2963" height="2120"/></clipPath><clipPath id="clip29"><rect x="3719" y="222" width="2963" height="2120"/></clipPath><clipPath id="clip30"><rect x="3719" y="222" width="2963" height="2120"/></clipPath><clipPath id="clip31"><rect x="3719" y="222" width="2963" height="2120"/></clipPath><clipPath id="clip32"><rect x="3719" y="222" width="2963" height="2120"/></clipPath><clipPath id="clip33"><rect x="3719" y="222" width="2963" height="2120"/></clipPath></defs><g clip-path="url(#clip0)" transform="translate(-3717 -220)"><rect x="3719" y="222" width="2963" height="2120" fill="#FFFFFF" fill-opacity="1"/><g clip-path="url(#clip1)"><path d="M3968.5 1963.56 6632.5 1963.56M3968.5 1789.56 6632.5 1789.56M3968.5 1614.55 6632.5 1614.55M3968.5 1440.55 6632.5 1440.55M3968.5 1265.54 6632.5 1265.54M3968.5 1090.54 6632.5 1090.54M3968.5 916.53 6632.5 916.53M3968.5 741.524 6632.5 741.524M3968.5 566.519 6632.5 566.519M3968.5 392.5 6632.5 392.5" stroke="#D9D9D9" stroke-width="3.4375" stroke-linecap="butt" stroke-linejoin="round" stroke-miterlimit="10" stroke-opacity="1" fill="none" fill-rule="nonzero"/></g><g clip-path="url(#clip2)"><path d="M4022.13 1615.05 4081.13 1615.05 4081.13 2139 4022.13 2139ZM4188.14 1615.05 4247.14 1615.05 4247.14 2139 4188.14 2139ZM4355.14 1615.05 4414.15 1615.05 4414.15 2139 4355.14 2139ZM4521.15 567.019 4580.15 567.019 4580.15 2139 4521.15 2139ZM4688.15 1615.05 4747.16 1615.05 4747.16 2139 4688.15 2139ZM4854.16 1615.05 4913.16 1615.05 4913.16 2139 4854.16 2139ZM5021.17 1615.05 5080.17 1615.05 5080.17 2139 5021.17 2139ZM5187.17 1091.04 5246.17 1091.04 5246.17 2139 5187.17 2139ZM5354.18 1615.05 5413.18 1615.05 5413.18 2139 5354.18 2139ZM5520.18 1615.05 5579.18 1615.05 5579.18 2139 5520.18 2139ZM5687.19 1091.04 5746.19 1091.04 5746.19 2139 5687.19 2139ZM5853.19 1615.05 5912.19 1615.05 5912.19 2139 5853.19 2139ZM6020.2 1615.05 6079.2 1615.05 6079.2 2139 6020.2 2139ZM6186.2 1615.05 6245.21 1615.05 6245.21 2139 6186.2 2139ZM6353.21 1615.05 6412.21 1615.05 6412.21 2139 6353.21 2139ZM6519.21 1615.05 6578.22 1615.05 6578.22 2139 6519.21 2139Z" fill="#4472C4" fill-rule="nonzero" fill-opacity="1"/></g><g clip-path="url(#clip3)"><path d="M3968.5 2138.5 6632.5 2138.5" stroke="#D9D9D9" stroke-width="3.4375" stroke-linecap="butt" stroke-linejoin="round" stroke-miterlimit="10" stroke-opacity="1" fill="none" fill-rule="evenodd"/></g><g clip-path="url(#clip4)"><text fill="#595959" fill-opacity="1" font-family="Calibri,Calibri_MSFontService,sans-serif" font-style="normal" font-variant="normal" font-weight="400" font-stretch="normal" font-size="41" text-anchor="start" direction="ltr" writing-mode="lr-tb" unicode-bidi="normal" text-decoration="none" transform="matrix(1 0 0 1 3846.36 2149)">1800</text></g><g clip-path="url(#clip5)"><text fill="#595959" fill-opacity="1" font-family="Calibri,Calibri_MSFontService,sans-serif" font-style="normal" font-variant="normal" font-weight="400" font-stretch="normal" font-size="41" text-anchor="start" direction="ltr" writing-mode="lr-tb" unicode-bidi="normal" text-decoration="none" transform="matrix(1 0 0 1 3846.36 1974)">1820</text></g><g clip-path="url(#clip6)"><text fill="#595959" fill-opacity="1" font-family="Calibri,Calibri_MSFontService,sans-serif" font-style="normal" font-variant="normal" font-weight="400" font-stretch="normal" font-size="41" text-anchor="start" direction="ltr" writing-mode="lr-tb" unicode-bidi="normal" text-decoration="none" transform="matrix(1 0 0 1 3846.36 1799)">1840</text></g><g clip-path="url(#clip7)"><text fill="#595959" fill-opacity="1" font-family="Calibri,Calibri_MSFontService,sans-serif" font-style="normal" font-variant="normal" font-weight="400" font-stretch="normal" font-size="41" text-anchor="start" direction="ltr" writing-mode="lr-tb" unicode-bidi="normal" text-decoration="none" transform="matrix(1 0 0 1 3846.36 1625)">1860</text></g><g clip-path="url(#clip8)"><text fill="#595959" fill-opacity="1" font-family="Calibri,Calibri_MSFontService,sans-serif" font-style="normal" font-variant="normal" font-weight="400" font-stretch="normal" font-size="41" text-anchor="start" direction="ltr" writing-mode="lr-tb" unicode-bidi="normal" text-decoration="none" transform="matrix(1 0 0 1 3846.36 1450)">1880</text></g><g clip-path="url(#clip9)"><text fill="#595959" fill-opacity="1" font-family="Calibri,Calibri_MSFontService,sans-serif" font-style="normal" font-variant="normal" font-weight="400" font-stretch="normal" font-size="41" text-anchor="start" direction="ltr" writing-mode="lr-tb" unicode-bidi="normal" text-decoration="none" transform="matrix(1 0 0 1 3846.36 1275)">1900</text></g><g clip-path="url(#clip10)"><text fill="#595959" fill-opacity="1" font-family="Calibri,Calibri_MSFontService,sans-serif" font-style="normal" font-variant="normal" font-weight="400" font-stretch="normal" font-size="41" text-anchor="start" direction="ltr" writing-mode="lr-tb" unicode-bidi="normal" text-decoration="none" transform="matrix(1 0 0 1 3846.36 1101)">1920</text></g><g clip-path="url(#clip11)"><text fill="#595959" fill-opacity="1" font-family="Calibri,Calibri_MSFontService,sans-serif" font-style="normal" font-variant="normal" font-weight="400" font-stretch="normal" font-size="41" text-anchor="start" direction="ltr" writing-mode="lr-tb" unicode-bidi="normal" text-decoration="none" transform="matrix(1 0 0 1 3846.36 926)">1940</text></g><g clip-path="url(#clip12)"><text fill="#595959" fill-opacity="1" font-family="Calibri,Calibri_MSFontService,sans-serif" font-style="normal" font-variant="normal" font-weight="400" font-stretch="normal" font-size="41" text-anchor="start" direction="ltr" writing-mode="lr-tb" unicode-bidi="normal" text-decoration="none" transform="matrix(1 0 0 1 3846.36 752)">1960</text></g><g clip-path="url(#clip13)"><text fill="#595959" fill-opacity="1" font-family="Calibri,Calibri_MSFontService,sans-serif" font-style="normal" font-variant="normal" font-weight="400" font-stretch="normal" font-size="41" text-anchor="start" direction="ltr" writing-mode="lr-tb" unicode-bidi="normal" text-decoration="none" transform="matrix(1 0 0 1 3846.36 577)">1980</text></g><g clip-path="url(#clip14)"><text fill="#595959" fill-opacity="1" font-family="Calibri,Calibri_MSFontService,sans-serif" font-style="normal" font-variant="normal" font-weight="400" font-stretch="normal" font-size="41" text-anchor="start" direction="ltr" writing-mode="lr-tb" unicode-bidi="normal" text-decoration="none" transform="matrix(1 0 0 1 3846.36 402)">2000</text></g><g clip-path="url(#clip15)"><text fill="#595959" fill-opacity="1" font-family="Calibri,Calibri_MSFontService,sans-serif" font-style="normal" font-variant="normal" font-weight="400" font-stretch="normal" font-size="41" text-anchor="start" direction="ltr" writing-mode="lr-tb" unicode-bidi="normal" text-decoration="none" transform="matrix(1 0 0 1 4020.12 2204)">128</text></g><g clip-path="url(#clip16)"><text fill="#595959" fill-opacity="1" font-family="Calibri,Calibri_MSFontService,sans-serif" font-style="normal" font-variant="normal" font-weight="400" font-stretch="normal" font-size="41" text-anchor="start" direction="ltr" writing-mode="lr-tb" unicode-bidi="normal" text-decoration="none" transform="matrix(1 0 0 1 4186.61 2204)">256</text></g><g clip-path="url(#clip17)"><text fill="#595959" fill-opacity="1" font-family="Calibri,Calibri_MSFontService,sans-serif" font-style="normal" font-variant="normal" font-weight="400" font-stretch="normal" font-size="41" text-anchor="start" direction="ltr" writing-mode="lr-tb" unicode-bidi="normal" text-decoration="none" transform="matrix(1 0 0 1 4353.1 2204)">512</text></g><g clip-path="url(#clip18)"><text fill="#595959" fill-opacity="1" font-family="Calibri,Calibri_MSFontService,sans-serif" font-style="normal" font-variant="normal" font-weight="400" font-stretch="normal" font-size="41" text-anchor="start" direction="ltr" writing-mode="lr-tb" unicode-bidi="normal" text-decoration="none" transform="matrix(1 0 0 1 4509.14 2204)">1024</text></g><g clip-path="url(#clip19)"><text fill="#595959" fill-opacity="1" font-family="Calibri,Calibri_MSFontService,sans-serif" font-style="normal" font-variant="normal" font-weight="400" font-stretch="normal" font-size="41" text-anchor="start" direction="ltr" writing-mode="lr-tb" unicode-bidi="normal" text-decoration="none" transform="matrix(1 0 0 1 4675.63 2204)">1152</text></g><g clip-path="url(#clip20)"><text fill="#595959" fill-opacity="1" font-family="Calibri,Calibri_MSFontService,sans-serif" font-style="normal" font-variant="normal" font-weight="400" font-stretch="normal" font-size="41" text-anchor="start" direction="ltr" writing-mode="lr-tb" unicode-bidi="normal" text-decoration="none" transform="matrix(1 0 0 1 4842.12 2204)">1280</text></g><g clip-path="url(#clip21)"><text fill="#595959" fill-opacity="1" font-family="Calibri,Calibri_MSFontService,sans-serif" font-style="normal" font-variant="normal" font-weight="400" font-stretch="normal" font-size="41" text-anchor="start" direction="ltr" writing-mode="lr-tb" unicode-bidi="normal" text-decoration="none" transform="matrix(1 0 0 1 5008.62 2204)">1408</text></g><g clip-path="url(#clip22)"><text fill="#595959" fill-opacity="1" font-family="Calibri,Calibri_MSFontService,sans-serif" font-style="normal" font-variant="normal" font-weight="400" font-stretch="normal" font-size="41" text-anchor="start" direction="ltr" writing-mode="lr-tb" unicode-bidi="normal" text-decoration="none" transform="matrix(1 0 0 1 5175.11 2204)">1536</text></g><g clip-path="url(#clip23)"><text fill="#595959" fill-opacity="1" font-family="Calibri,Calibri_MSFontService,sans-serif" font-style="normal" font-variant="normal" font-weight="400" font-stretch="normal" font-size="41" text-anchor="start" direction="ltr" writing-mode="lr-tb" unicode-bidi="normal" text-decoration="none" transform="matrix(1 0 0 1 5341.6 2204)">1792</text></g><g clip-path="url(#clip24)"><text fill="#595959" fill-opacity="1" font-family="Calibri,Calibri_MSFontService,sans-serif" font-style="normal" font-variant="normal" font-weight="400" font-stretch="normal" font-size="41" text-anchor="start" direction="ltr" writing-mode="lr-tb" unicode-bidi="normal" text-decoration="none" transform="matrix(1 0 0 1 5508.09 2204)">1856</text></g><g clip-path="url(#clip25)"><text fill="#595959" fill-opacity="1" font-family="Calibri,Calibri_MSFontService,sans-serif" font-style="normal" font-variant="normal" font-weight="400" font-stretch="normal" font-size="41" text-anchor="start" direction="ltr" writing-mode="lr-tb" unicode-bidi="normal" text-decoration="none" transform="matrix(1 0 0 1 5674.58 2204)">2048</text></g><g clip-path="url(#clip26)"><text fill="#595959" fill-opacity="1" font-family="Calibri,Calibri_MSFontService,sans-serif" font-style="normal" font-variant="normal" font-weight="400" font-stretch="normal" font-size="41" text-anchor="start" direction="ltr" writing-mode="lr-tb" unicode-bidi="normal" text-decoration="none" transform="matrix(1 0 0 1 5841.07 2204)">2240</text></g><g clip-path="url(#clip27)"><text fill="#595959" fill-opacity="1" font-family="Calibri,Calibri_MSFontService,sans-serif" font-style="normal" font-variant="normal" font-weight="400" font-stretch="normal" font-size="41" text-anchor="start" direction="ltr" writing-mode="lr-tb" unicode-bidi="normal" text-decoration="none" transform="matrix(1 0 0 1 6007.56 2204)">2432</text></g><g clip-path="url(#clip28)"><text fill="#595959" fill-opacity="1" font-family="Calibri,Calibri_MSFontService,sans-serif" font-style="normal" font-variant="normal" font-weight="400" font-stretch="normal" font-size="41" text-anchor="start" direction="ltr" writing-mode="lr-tb" unicode-bidi="normal" text-decoration="none" transform="matrix(1 0 0 1 6174.06 2204)">2624</text></g><g clip-path="url(#clip29)"><text fill="#595959" fill-opacity="1" font-family="Calibri,Calibri_MSFontService,sans-serif" font-style="normal" font-variant="normal" font-weight="400" font-stretch="normal" font-size="41" text-anchor="start" direction="ltr" writing-mode="lr-tb" unicode-bidi="normal" text-decoration="none" transform="matrix(1 0 0 1 6340.55 2204)">2816</text></g><g clip-path="url(#clip30)"><text fill="#595959" fill-opacity="1" font-family="Calibri,Calibri_MSFontService,sans-serif" font-style="normal" font-variant="normal" font-weight="400" font-stretch="normal" font-size="41" text-anchor="start" direction="ltr" writing-mode="lr-tb" unicode-bidi="normal" text-decoration="none" transform="matrix(1 0 0 1 6507.04 2204)">3008</text></g><g clip-path="url(#clip31)"><text fill="#595959" fill-opacity="1" font-family="Calibri,Calibri_MSFontService,sans-serif" font-style="normal" font-variant="normal" font-weight="400" font-stretch="normal" font-size="46" text-anchor="start" direction="ltr" writing-mode="lr-tb" unicode-bidi="normal" text-decoration="none" transform="matrix(6.12323e-17 -1 1 6.12323e-17 3820.67 1407)">Time (Seconds)</text></g><g clip-path="url(#clip32)"><text fill="#595959" fill-opacity="1" font-family="Calibri,Calibri_MSFontService,sans-serif" font-style="normal" font-variant="normal" font-weight="400" font-stretch="normal" font-size="46" text-anchor="start" direction="ltr" writing-mode="lr-tb" unicode-bidi="normal" text-decoration="none" transform="matrix(1 0 0 1 5076.44 2273)">Memory Allocated (MB)</text></g><g clip-path="url(#clip33)"><text fill="#595959" fill-opacity="1" font-family="Calibri,Calibri_MSFontService,sans-serif" font-style="normal" font-variant="normal" font-weight="400" font-stretch="normal" font-size="64" text-anchor="start" direction="ltr" writing-mode="lr-tb" unicode-bidi="normal" text-decoration="none" transform="matrix(1 0 0 1 4931.31 318)">Time Until Cold Start</text></g><rect x="3719.5" y="222.5" width="2963" height="2120" stroke="#D9D9D9" stroke-width="3.4375" stroke-linecap="butt" stroke-linejoin="round" stroke-miterlimit="10" stroke-opacity="1" fill="none"/></g></svg>